<svg xmlns="http://www.w3.org/2000/svg" width="601" height="415" viewBox="0 0 601 415">
<g>
<path d="M 304.65 373.92 C277.91,379.09 258.03,375.34 194.50,353.18 C154.59,339.27 143.71,334.48 132.32,325.86 L 125.51 320.71 L 117.00 322.82 C112.33,323.99 100.96,326.92 91.75,329.35 C82.54,331.78 75.00,333.37 75.00,332.88 C75.00,332.40 75.11,332.00 75.25,332.00 C76.78,331.98 116.50,314.01 116.76,313.22 C117.10,312.19 105.05,298.27 102.54,296.80 C101.89,296.41 90.24,294.86 76.67,293.35 C63.10,291.84 52.00,290.29 52.00,289.92 C52.00,289.54 61.03,288.90 72.08,288.50 C87.59,287.93 92.27,287.45 92.68,286.40 C92.97,285.65 90.76,282.23 87.75,278.77 C79.58,269.39 76.00,264.00 76.00,261.09 C76.00,259.66 80.54,245.21 86.09,228.99 C91.64,212.77 96.56,198.38 97.02,197.00 C97.48,195.62 100.37,187.30 103.43,178.50 L 109.01 162.50 L 107.85 143.40 C105.52,105.13 110.54,60.86 120.19,34.50 C125.77,19.26 130.20,14.35 137.18,15.63 C153.12,18.57 190.20,49.53 219.51,84.38 L 224.46 90.25 L 233.48 89.66 C277.00,86.80 290.15,86.80 333.54,89.66 L 342.57 90.25 L 352.71 78.88 C384.46,43.26 420.25,15.00 433.60,15.00 C436.06,15.00 441.16,20.37 443.95,25.90 C449.28,36.47 454.12,55.33 457.69,79.50 C459.12,89.18 459.49,98.76 459.58,129.00 L 459.70 166.50 L 473.41 206.00 C474.09,207.97 474.75,209.87 475.38,211.70 C491.06,256.86 492.35,260.58 491.24,263.35 C491.10,263.71 490.91,264.06 490.71,264.48 C489.90,266.19 485.98,271.53 482.02,276.34 C478.05,281.15 475.05,285.69 475.34,286.43 C475.74,287.48 480.70,287.96 497.18,288.54 C508.94,288.95 517.60,289.63 516.50,290.05 C515.40,290.47 507.52,291.52 499.00,292.40 C490.48,293.27 479.45,294.49 474.50,295.11 L 465.50 296.24 L 457.83 304.34 C453.61,308.80 450.39,312.82 450.67,313.27 C451.21,314.14 459.96,318.26 466.00,320.48 C467.92,321.19 471.98,322.89 475.00,324.27 C478.02,325.65 482.98,327.80 486.00,329.05 C498.62,334.27 494.32,334.23 474.50,328.95 C466.25,326.75 455.64,323.99 450.93,322.81 L 442.35 320.67 L 435.56 325.88 C427.74,331.87 421.26,335.31 407.95,340.53 C371.11,354.98 324.16,370.16 304.65,373.92 ZM 195.00 260.14 C200.57,262.33 214.29,262.56 221.69,260.59 C227.16,259.14 236.11,254.93 240.03,251.98 L 242.36 250.22 L 240.55 245.48 C237.86,238.45 231.06,229.08 225.15,224.26 C222.27,221.91 219.57,220.00 219.14,220.00 C218.71,220.00 217.87,223.12 217.28,226.93 C216.16,234.17 212.72,242.76 209.26,246.97 C206.78,249.99 205.51,249.20 201.74,242.26 C198.20,235.76 196.62,226.14 197.85,218.50 C198.45,214.76 198.46,212.13 197.88,211.52 C197.35,210.97 190.32,210.53 181.72,210.52 L 166.50 210.50 L 166.20 217.33 C165.40,235.76 177.04,253.07 195.00,260.14 ZM 343.98 259.70 C365.49,266.97 387.72,257.58 397.31,237.18 C400.05,231.35 400.50,229.19 400.84,220.25 L 401.23 210.00 L 389.36 210.06 C382.84,210.09 375.70,210.43 373.51,210.82 L 369.51 211.53 L 369.47 223.02 C369.42,235.28 367.66,241.54 362.78,246.74 C360.78,248.87 360.55,248.90 358.79,247.31 C354.08,243.04 350.03,232.88 350.01,225.25 C349.99,218.96 347.35,219.58 339.21,227.75 C332.80,234.19 326.00,245.31 326.00,249.36 C326.00,251.41 335.36,256.79 343.98,259.70 ZM 280.40 304.10 C282.10,305.14 283.96,305.99 284.53,306.00 C286.74,306.00 290.01,302.76 290.78,299.78 C291.39,297.41 293.01,295.80 297.54,293.06 C304.25,289.01 305.53,286.18 301.83,283.60 C299.99,282.30 296.65,282.00 284.32,282.00 C268.97,282.00 264.68,282.78 263.53,285.78 C262.73,287.86 265.60,290.76 271.28,293.64 C275.03,295.54 276.20,296.73 276.68,299.14 C277.07,301.11 278.40,302.88 280.40,304.10 Z" fill="rgb(30,37,46)"/>
</g>
</svg>